<?xml version="1.0"?>
<svg xmlns="http://www.w3.org/2000/svg" xmlns:xlink="http://www.w3.org/1999/xlink" xmlns:svgjs="http://svgjs.com/svgjs" version="1.1" width="512" height="512" x="0" y="0" viewBox="0 0 512 512" style="enable-background:new 0 0 512 512" xml:space="preserve" class=""><g><path xmlns="http://www.w3.org/2000/svg" d="m256 80h-32v-48h-64v48h-32v-80h128zm0 0" fill="#070707" data-original="#62808c" style=""/><path xmlns="http://www.w3.org/2000/svg" d="m304 512h-224c-26.507812 0-48-21.492188-48-48v-336h320v336c0 26.507812-21.492188 48-48 48zm0 0" fill="#070707" data-original="#e76e54" style="" class=""/><path xmlns="http://www.w3.org/2000/svg" d="m384 160h-384v-64c0-17.671875 14.328125-32 32-32h320c17.671875 0 32 14.328125 32 32zm0 0" fill="#070707" data-original="#77959e" style="" class=""/><path xmlns="http://www.w3.org/2000/svg" d="m260 260c-6.246094-6.246094-16.375-6.246094-22.625 0l-41.375 41.375-41.375-41.375c-6.25-6.246094-16.378906-6.246094-22.625 0s-6.246094 16.375 0 22.625l41.375 41.375-41.375 41.375c-6.246094 6.25-6.246094 16.378906 0 22.625s16.375 6.246094 22.625 0l41.375-41.375 41.375 41.375c6.25 6.246094 16.378906 6.246094 22.625 0s6.246094-16.375 0-22.625l-41.375-41.375 41.375-41.375c6.246094-6.25 6.246094-16.378906 0-22.625zm0 0" fill="#ffffff" data-original="#ffffff" style=""/></g></svg>
